<mxfile host="app.diagrams.net" modified="2024-04-26T19:18:43.145Z" agent="Mozilla/5.0 (Windows NT 10.0; Win64; x64; rv:125.0) Gecko/20100101 Firefox/125.0" etag="TUl5W2P7N9-TaGWmTXjm" version="24.3.1" type="github">
  <diagram name="Page-1" id="byOk9xRa5CcR8panvYQZ">
    <mxGraphModel dx="1518" dy="633" grid="1" gridSize="10" guides="1" tooltips="1" connect="1" arrows="1" fold="1" page="1" pageScale="1" pageWidth="827" pageHeight="1169" math="0" shadow="0">
      <root>
        <mxCell id="0" />
        <mxCell id="1" parent="0" />
        <mxCell id="9KJZtaSVQt983nIqM5jM-2" value="" style="rounded=0;whiteSpace=wrap;html=1;" vertex="1" parent="1">
          <mxGeometry y="80" width="300" height="440" as="geometry" />
        </mxCell>
        <mxCell id="9KJZtaSVQt983nIqM5jM-3" value="" style="rounded=0;whiteSpace=wrap;html=1;" vertex="1" parent="1">
          <mxGeometry x="300" y="80" width="300" height="440" as="geometry" />
        </mxCell>
        <mxCell id="9KJZtaSVQt983nIqM5jM-4" value="" style="rounded=0;whiteSpace=wrap;html=1;" vertex="1" parent="1">
          <mxGeometry x="600" y="80" width="300" height="440" as="geometry" />
        </mxCell>
        <mxCell id="9KJZtaSVQt983nIqM5jM-5" value="" style="rounded=0;whiteSpace=wrap;html=1;" vertex="1" parent="1">
          <mxGeometry x="900" y="80" width="180" height="440" as="geometry" />
        </mxCell>
        <mxCell id="9KJZtaSVQt983nIqM5jM-6" value="" style="endArrow=none;dashed=1;html=1;rounded=0;" edge="1" parent="1">
          <mxGeometry width="50" height="50" relative="1" as="geometry">
            <mxPoint x="12.5" y="50" as="sourcePoint" />
            <mxPoint x="12.5" y="600" as="targetPoint" />
          </mxGeometry>
        </mxCell>
        <mxCell id="9KJZtaSVQt983nIqM5jM-7" value="" style="endArrow=none;dashed=1;html=1;rounded=0;" edge="1" parent="1">
          <mxGeometry width="50" height="50" relative="1" as="geometry">
            <mxPoint x="287.5" y="50" as="sourcePoint" />
            <mxPoint x="287.5" y="600" as="targetPoint" />
          </mxGeometry>
        </mxCell>
      </root>
    </mxGraphModel>
  </diagram>
</mxfile>
